<svg xmlns="http://www.w3.org/2000/svg" viewBox="0 0 16 16">
    <path fill="#FFF" d="M4 3h10v12H4V3z"/>
    <path fill="#666" d="M4 3v12h10V3H4zm1 1h8v10H5V4z"/>
    <path fill="#999" d="M5 4h8v1H5z"/>
    <path fill="#B9B9B9"
          d="M2 1h1v1H2zM2 3h1v1H2zM2 5h1v1H2zM2 7h1v1H2zM2 9h1v1H2zM2 11h1v1H2zM4 1h1v1H4zM6 1h1v1H6zM8 1h1v1H8zM10 1h1v1h-1z"/>
    <g fill="#FF8700">
        <path d="M5.5 9.5c2.2 0 4 1.8 4 4h.8c0-2.6-2.2-4.8-4.8-4.8v.8z"/>
        <path d="M5.5 11c1.3 0 2.5 1.2 2.5 2.5h.8c0-1.8-1.5-3.3-3.3-3.3v.8z"/>
        <circle cx="6.1" cy="12.9" r=".6"/>
        <rect x="9.0" y="6.0" width="3" height=".5"/>
        <rect x="9.0" y="7.0" width="3" height=".5"/>
        <rect x="9.0" y="8.0" width="2.5" height=".5"/>
    </g>
</svg>
